<svg xmlns="http://www.w3.org/2000/svg" xmlns:xlink="http://www.w3.org/1999/xlink" width="500" zoomAndPan="magnify" viewBox="0 0 375 374.999991" height="500" preserveAspectRatio="xMidYMid meet" version="1.0"><defs><g><g id="id1"/></g><clipPath id="id2"><path d="M 180 166 L 227.367188 166 L 227.367188 204 L 180 204 Z M 180 166 " clip-rule="nonzero"/></clipPath><clipPath id="id3"><path d="M 142 166 L 180 166 L 180 213.363281 L 142 213.363281 Z M 142 166 " clip-rule="nonzero"/></clipPath><clipPath id="id4"><path d="M 132.867188 128 L 180 128 L 180 166 L 132.867188 166 Z M 132.867188 128 " clip-rule="nonzero"/></clipPath><clipPath id="id5"><path d="M 180 118.863281 L 218 118.863281 L 218 166 L 180 166 Z M 180 118.863281 " clip-rule="nonzero"/></clipPath></defs><g clip-path="url(#id2)"><path fill="rgb(96.078491%, 52.549744%, 7.839966%)" d="M 227.371094 199.789062 C 224.414062 200.472656 221.226562 200.84375 217.902344 200.84375 C 202.367188 200.84375 189.773438 192.71875 189.773438 182.699219 C 189.773438 175.769531 195.804688 169.746094 204.664062 166.691406 C 191.050781 168.203125 180.695312 175.855469 180.695312 185.070312 C 180.695312 195.371094 193.640625 203.722656 209.609375 203.722656 C 216.308594 203.722656 222.472656 202.253906 227.371094 199.789062 " fill-opacity="1" fill-rule="nonzero"/></g><path fill="rgb(96.078491%, 52.549744%, 7.839966%)" d="M 202.652344 192.199219 C 198.34375 192.199219 194.851562 189.421875 194.851562 185.996094 C 194.851562 182.566406 198.34375 179.789062 202.652344 179.789062 C 206.960938 179.789062 210.457031 182.566406 210.457031 185.996094 C 210.457031 189.421875 206.960938 192.199219 202.652344 192.199219 " fill-opacity="1" fill-rule="nonzero"/><g clip-path="url(#id3)"><path fill="rgb(49.409485%, 79.60968%, 16.468811%)" d="M 146.449219 213.367188 C 145.769531 210.410156 145.394531 207.21875 145.394531 203.894531 C 145.394531 188.363281 153.519531 175.769531 163.539062 175.769531 C 170.472656 175.769531 176.496094 181.796875 179.550781 190.65625 C 178.035156 177.046875 170.382812 166.691406 161.167969 166.691406 C 150.867188 166.691406 142.515625 179.636719 142.515625 195.605469 C 142.515625 202.300781 143.984375 208.46875 146.449219 213.367188 " fill-opacity="1" fill-rule="nonzero"/></g><path fill="rgb(49.409485%, 79.60968%, 16.468811%)" d="M 154.039062 188.648438 C 154.039062 184.335938 156.816406 180.84375 160.242188 180.84375 C 163.671875 180.84375 166.449219 184.335938 166.449219 188.648438 C 166.449219 192.957031 163.671875 196.449219 160.242188 196.449219 C 156.816406 196.449219 154.039062 192.957031 154.039062 188.648438 " fill-opacity="1" fill-rule="nonzero"/><g clip-path="url(#id4)"><path fill="rgb(92.939758%, 9.01947%, 43.139648%)" d="M 132.871094 132.445312 C 135.832031 131.761719 139.019531 131.390625 142.34375 131.390625 C 157.875 131.390625 170.46875 139.511719 170.46875 149.535156 C 170.46875 156.464844 164.441406 162.488281 155.582031 165.542969 C 169.191406 164.03125 179.550781 156.378906 179.550781 147.164062 C 179.550781 136.863281 166.601562 128.511719 150.632812 128.511719 C 143.9375 128.511719 137.773438 129.980469 132.871094 132.445312 " fill-opacity="1" fill-rule="nonzero"/></g><path fill="rgb(92.939758%, 9.01947%, 43.139648%)" d="M 157.589844 140.035156 C 161.902344 140.035156 165.394531 142.8125 165.394531 146.238281 C 165.394531 149.664062 161.902344 152.445312 157.589844 152.445312 C 153.28125 152.445312 149.789062 149.664062 149.789062 146.238281 C 149.789062 142.8125 153.28125 140.035156 157.589844 140.035156 " fill-opacity="1" fill-rule="nonzero"/><g clip-path="url(#id5)"><path fill="rgb(29.019165%, 75.289917%, 84.709167%)" d="M 213.792969 118.863281 C 214.476562 121.824219 214.847656 125.015625 214.847656 128.339844 C 214.847656 143.871094 206.726562 156.464844 196.707031 156.464844 C 189.773438 156.464844 183.75 150.4375 180.695312 141.574219 C 182.210938 155.1875 189.859375 165.542969 199.074219 165.542969 C 209.375 165.542969 217.726562 152.597656 217.726562 136.628906 C 217.726562 129.929688 216.257812 123.765625 213.792969 118.863281 " fill-opacity="1" fill-rule="nonzero"/></g><path fill="rgb(29.019165%, 75.289917%, 84.709167%)" d="M 206.203125 143.585938 C 206.203125 147.894531 203.425781 151.390625 200 151.390625 C 196.574219 151.390625 193.796875 147.894531 193.796875 143.585938 C 193.796875 139.277344 196.574219 135.785156 200 135.785156 C 203.425781 135.785156 206.203125 139.277344 206.203125 143.585938 " fill-opacity="1" fill-rule="nonzero"/><g fill="rgb(3.138733%, 13.328552%, 26.669312%)" fill-opacity="1"><g transform="translate(128.025868, 257.059759)"><g><path d="M 0.671875 -2.484375 C 1.429688 -2.597656 1.945312 -2.84375 2.21875 -3.21875 C 2.5 -3.59375 2.640625 -4.234375 2.640625 -5.140625 L 2.640625 -15.375 C 2.640625 -16 2.566406 -16.410156 2.421875 -16.609375 C 2.273438 -16.816406 1.992188 -16.921875 1.578125 -16.921875 L 0.78125 -16.890625 L 0.515625 -17.3125 L 0.75 -19.578125 L 5.625 -19.578125 C 6.695312 -19.578125 7.878906 -19.597656 9.171875 -19.640625 C 10.460938 -19.679688 11.367188 -19.710938 11.890625 -19.734375 L 11.5625 -16.765625 C 10.507812 -16.660156 9.804688 -16.503906 9.453125 -16.296875 C 9.097656 -16.085938 8.910156 -15.71875 8.890625 -15.1875 C 8.691406 -12.164062 8.59375 -8.695312 8.59375 -4.78125 C 8.59375 -4.3125 8.675781 -3.976562 8.84375 -3.78125 C 9.019531 -3.582031 9.3125 -3.484375 9.71875 -3.484375 C 10.457031 -3.484375 11.019531 -3.613281 11.40625 -3.875 C 11.789062 -4.132812 12.066406 -4.609375 12.234375 -5.296875 C 12.410156 -5.984375 12.539062 -7.019531 12.625 -8.40625 L 16.5 -8.8125 L 16.859375 -8.359375 C 16.796875 -7.910156 16.6875 -6.890625 16.53125 -5.296875 C 16.382812 -3.703125 16.25 -2.023438 16.125 -0.265625 L 15.671875 0.21875 C 15.148438 0.195312 13.984375 0.15625 12.171875 0.09375 C 10.367188 0.03125 8.570312 0 6.78125 0 C 5.488281 0 4.191406 0.0351562 2.890625 0.109375 C 1.585938 0.191406 0.753906 0.253906 0.390625 0.296875 Z M 0.671875 -2.484375 "/></g></g></g><g fill="rgb(3.138733%, 13.328552%, 26.669312%)" fill-opacity="1"><g transform="translate(148.367313, 257.059759)"><g><path d="M 17.796875 -6.5 C 17.453125 -4.726562 17.171875 -2.648438 16.953125 -0.265625 L 16.5 0.21875 C 13.101562 0.0703125 9.863281 0 6.78125 0 C 4.800781 0 2.671875 0.0976562 0.390625 0.296875 L 0.671875 -2.484375 C 1.429688 -2.597656 1.945312 -2.84375 2.21875 -3.21875 C 2.5 -3.59375 2.640625 -4.234375 2.640625 -5.140625 L 2.65625 -15.28125 C 2.65625 -15.945312 2.601562 -16.382812 2.5 -16.59375 C 2.40625 -16.8125 2.1875 -16.921875 1.84375 -16.921875 C 1.5625 -16.921875 1.300781 -16.898438 1.0625 -16.859375 L 0.703125 -17.28125 L 0.96875 -19.671875 C 1.375 -19.671875 1.6875 -19.660156 1.90625 -19.640625 C 4.363281 -19.597656 6.398438 -19.578125 8.015625 -19.578125 C 9.910156 -19.578125 11.726562 -19.613281 13.46875 -19.6875 C 15.21875 -19.757812 16.519531 -19.84375 17.375 -19.9375 L 17.765625 -19.453125 C 17.609375 -18.628906 17.460938 -17.640625 17.328125 -16.484375 C 17.191406 -15.335938 17.101562 -14.320312 17.0625 -13.4375 L 12.890625 -13.171875 L 12.953125 -14.28125 C 12.953125 -14.75 12.875 -15.097656 12.71875 -15.328125 C 12.570312 -15.554688 12.289062 -15.71875 11.875 -15.8125 C 11.46875 -15.90625 10.835938 -15.953125 9.984375 -15.953125 C 9.566406 -15.953125 9.289062 -15.898438 9.15625 -15.796875 C 9.019531 -15.691406 8.953125 -15.46875 8.953125 -15.125 L 8.78125 -11.71875 L 11.265625 -11.6875 C 12.066406 -11.6875 13.175781 -11.742188 14.59375 -11.859375 L 14.953125 -11.4375 L 14.53125 -7.953125 C 12.59375 -8.015625 11.378906 -8.046875 10.890625 -8.046875 C 10.472656 -8.046875 9.71875 -7.988281 8.625 -7.875 L 8.59375 -5.296875 C 8.59375 -4.753906 8.628906 -4.351562 8.703125 -4.09375 C 8.773438 -3.84375 8.90625 -3.675781 9.09375 -3.59375 C 9.28125 -3.519531 9.597656 -3.484375 10.046875 -3.484375 C 10.953125 -3.484375 11.625 -3.5625 12.0625 -3.71875 C 12.507812 -3.882812 12.835938 -4.179688 13.046875 -4.609375 C 13.265625 -5.046875 13.4375 -5.738281 13.5625 -6.6875 L 17.4375 -6.96875 Z M 17.796875 -6.5 "/></g></g></g><g fill="rgb(3.138733%, 13.328552%, 26.669312%)" fill-opacity="1"><g transform="translate(170.101161, 257.059759)"><g><path d="M 0.671875 -2.484375 C 1.429688 -2.597656 1.945312 -2.84375 2.21875 -3.21875 C 2.5 -3.59375 2.640625 -4.234375 2.640625 -5.140625 L 2.65625 -15.28125 C 2.65625 -15.925781 2.597656 -16.359375 2.484375 -16.578125 C 2.378906 -16.804688 2.164062 -16.921875 1.84375 -16.921875 C 1.664062 -16.921875 1.503906 -16.910156 1.359375 -16.890625 C 1.222656 -16.867188 1.125 -16.859375 1.0625 -16.859375 L 0.703125 -17.28125 L 0.96875 -19.671875 C 1.445312 -19.648438 2.363281 -19.628906 3.71875 -19.609375 C 5.070312 -19.585938 6.503906 -19.578125 8.015625 -19.578125 C 9.734375 -19.578125 11.390625 -19.613281 12.984375 -19.6875 C 14.578125 -19.757812 15.757812 -19.84375 16.53125 -19.9375 L 16.921875 -19.453125 C 16.878906 -19.097656 16.789062 -18.296875 16.65625 -17.046875 C 16.53125 -15.804688 16.4375 -14.601562 16.375 -13.4375 L 12.203125 -13.203125 C 12.203125 -13.273438 12.207031 -13.414062 12.21875 -13.625 C 12.238281 -13.84375 12.25 -14.0625 12.25 -14.28125 C 12.25 -14.925781 12.09375 -15.363281 11.78125 -15.59375 C 11.46875 -15.832031 10.867188 -15.953125 9.984375 -15.953125 C 9.566406 -15.953125 9.289062 -15.898438 9.15625 -15.796875 C 9.019531 -15.691406 8.953125 -15.46875 8.953125 -15.125 L 8.75 -11.203125 L 11.265625 -11.171875 C 11.617188 -11.171875 12.175781 -11.191406 12.9375 -11.234375 C 13.695312 -11.285156 14.195312 -11.320312 14.4375 -11.34375 L 14.796875 -10.921875 L 14.375 -7.453125 C 14.132812 -7.460938 13.679688 -7.476562 13.015625 -7.5 C 12.347656 -7.519531 11.640625 -7.53125 10.890625 -7.53125 C 10.410156 -7.53125 9.65625 -7.472656 8.625 -7.359375 L 8.59375 -5.296875 C 8.59375 -4.566406 8.675781 -4.082031 8.84375 -3.84375 C 9.019531 -3.601562 9.359375 -3.484375 9.859375 -3.484375 C 10.242188 -3.484375 10.609375 -3.515625 10.953125 -3.578125 C 11.296875 -3.648438 11.519531 -3.695312 11.625 -3.71875 L 12.109375 -3.171875 L 11.71875 0.09375 C 11.332031 0.09375 10.640625 0.078125 9.640625 0.046875 C 8.640625 0.015625 7.6875 0 6.78125 0 C 5.488281 0 4.191406 0.0351562 2.890625 0.109375 C 1.585938 0.191406 0.753906 0.253906 0.390625 0.296875 Z M 0.671875 -2.484375 "/></g></g></g><g fill="rgb(3.138733%, 13.328552%, 26.669312%)" fill-opacity="1"><g transform="translate(190.351795, 257.059759)"><g><path d="M 2.96875 -2.515625 C 3.8125 -2.597656 4.441406 -2.710938 4.859375 -2.859375 C 5.273438 -3.015625 5.5625 -3.257812 5.71875 -3.59375 C 5.882812 -3.9375 5.96875 -4.429688 5.96875 -5.078125 L 5.96875 -15.921875 C 5.394531 -15.921875 4.972656 -15.816406 4.703125 -15.609375 C 4.429688 -15.410156 4.226562 -15.03125 4.09375 -14.46875 C 3.96875 -13.90625 3.851562 -13.015625 3.75 -11.796875 L 0 -11.5625 C 0.125 -13.925781 0.203125 -16.566406 0.234375 -19.484375 L 0.640625 -19.921875 L 4.234375 -19.578125 L 13.734375 -19.578125 L 17.40625 -19.921875 L 17.796875 -19.484375 C 17.835938 -16.078125 17.890625 -13.515625 17.953125 -11.796875 L 14.1875 -11.5625 C 14.09375 -12.957031 13.984375 -13.941406 13.859375 -14.515625 C 13.742188 -15.085938 13.5625 -15.460938 13.3125 -15.640625 C 13.070312 -15.828125 12.671875 -15.921875 12.109375 -15.921875 C 12.003906 -12.242188 11.953125 -8.550781 11.953125 -4.84375 C 11.953125 -4.070312 12.066406 -3.53125 12.296875 -3.21875 C 12.535156 -2.90625 12.945312 -2.75 13.53125 -2.75 C 13.894531 -2.75 14.410156 -2.78125 15.078125 -2.84375 L 15.21875 -2.65625 L 14.953125 0.1875 C 12.285156 0.0625 10.238281 0 8.8125 0 C 7.476562 0 5.445312 0.0859375 2.71875 0.265625 Z M 2.96875 -2.515625 "/></g></g></g><g fill="rgb(3.138733%, 13.328552%, 26.669312%)" fill-opacity="1"><g transform="translate(211.78295, 257.059759)"><g><path d="M 4.078125 -2.515625 C 4.972656 -2.578125 5.632812 -2.679688 6.0625 -2.828125 C 6.5 -2.984375 6.796875 -3.210938 6.953125 -3.515625 C 7.117188 -3.816406 7.203125 -4.28125 7.203125 -4.90625 L 7.203125 -5.390625 C 7.203125 -5.828125 7.140625 -6.242188 7.015625 -6.640625 C 6.898438 -7.035156 6.679688 -7.523438 6.359375 -8.109375 L 3.125 -14.140625 C 2.507812 -15.242188 1.507812 -16.085938 0.125 -16.671875 L 0 -16.859375 L 0.296875 -19.609375 L 4.84375 -19.546875 C 5.425781 -19.546875 6.367188 -19.578125 7.671875 -19.640625 C 8.972656 -19.703125 9.847656 -19.742188 10.296875 -19.765625 L 10.5 -19.4375 L 10.234375 -16.953125 C 9.398438 -16.953125 8.984375 -16.695312 8.984375 -16.1875 C 8.984375 -15.988281 9.15625 -15.457031 9.5 -14.59375 C 9.84375 -13.738281 10.066406 -13.179688 10.171875 -12.921875 L 10.6875 -11.71875 L 11.109375 -11.71875 L 12.34375 -15.15625 C 12.601562 -15.75 12.734375 -16.195312 12.734375 -16.5 C 12.734375 -16.675781 12.648438 -16.800781 12.484375 -16.875 C 12.316406 -16.945312 12.019531 -16.984375 11.59375 -16.984375 L 11.5 -17.15625 L 11.75 -19.546875 L 16.53125 -19.546875 C 17.175781 -19.546875 17.851562 -19.5625 18.5625 -19.59375 C 19.28125 -19.625 19.738281 -19.648438 19.9375 -19.671875 L 20.0625 -19.4375 L 19.828125 -16.796875 C 19.179688 -16.429688 18.5625 -15.914062 17.96875 -15.25 C 17.382812 -14.582031 16.882812 -13.828125 16.46875 -12.984375 L 13.703125 -7.46875 C 13.503906 -6.988281 13.378906 -6.5625 13.328125 -6.1875 C 13.273438 -5.8125 13.25 -5.300781 13.25 -4.65625 C 13.25 -3.957031 13.359375 -3.460938 13.578125 -3.171875 C 13.804688 -2.890625 14.203125 -2.75 14.765625 -2.75 C 15.148438 -2.75 15.484375 -2.757812 15.765625 -2.78125 C 16.046875 -2.800781 16.226562 -2.820312 16.3125 -2.84375 L 16.46875 -2.65625 L 16.1875 0.1875 C 15.707031 0.164062 14.722656 0.128906 13.234375 0.078125 C 11.753906 0.0234375 10.648438 0 9.921875 0 C 9.117188 0 8.015625 0.0351562 6.609375 0.109375 C 5.210938 0.191406 4.289062 0.242188 3.84375 0.265625 Z M 4.078125 -2.515625 "/></g></g></g></svg>